<?xml version="1.0" ?><!-- Uploaded to: SVG Repo, www.svgrepo.com, Generator: SVG Repo Mixer Tools -->
<svg width="800px" height="800px" viewBox="0 0 64 64" data-name="Layer 1" id="Layer_1" xmlns="http://www.w3.org/2000/svg"><defs><style>.cls-1{fill:#838bc5;}.cls-2{fill:#fcdd7c;}.cls-3{fill:#fcd8d1;}.cls-4{fill:#ba9bc9;}.cls-5{fill:#65c8d0;}</style></defs><polyline class="cls-1" points="3 42 5 62 15 62 16.94 42"/><polyline class="cls-1" points="47.06 42 49 62 59 62 61 42"/><path class="cls-1" d="M40.7,22.25a12,12,0,1,0-17.4,0L21,30l5.89-5.15a11.93,11.93,0,0,0,10.22,0L43,30Z"/><circle class="cls-2" cx="32" cy="14" r="8"/><circle class="cls-3" cx="9.99" cy="23" r="5"/><path class="cls-4" d="M16,42H2V36a8,8,0,1,1,16,0v1.83"/><path class="cls-3" d="M26,40.64h0a2,2,0,0,1-2,2H17L8.26,37.08a2.75,2.75,0,0,1-.88-3.74h0a2.75,2.75,0,0,1,4.08-.74l7.54,6h5A2,2,0,0,1,26,40.64Z"/><circle class="cls-3" cx="54" cy="23" r="5"/><path class="cls-4" d="M46,37.83V36a8,8,0,0,1,16,0v6H48"/><path class="cls-3" d="M38,40.64h0a2,2,0,0,0,2,2h7l8.73-5.56a2.76,2.76,0,0,0,.89-3.74h0a2.75,2.75,0,0,0-4.08-.74l-7.54,6H40A2,2,0,0,0,38,40.64Z"/><path class="cls-5" d="M32.89,18.45l-1.78-.9L32.38,15H30a1,1,0,0,1-.89-1.45l2-4,1.78.9L31.62,13H34a1,1,0,0,1,.89,1.45Z"/></svg>