<svg xmlns="http://www.w3.org/2000/svg" viewBox="0 0 48 48">
    <path fill="#fff" d="M24 4C12.95 4 4 12.95 4 24c0 3.77 1.04 7.3 2.85 10.3L4 44l10.02-2.63C16.86 42.99 20.3 44 24 44c11.05 0 20-8.95 20-20S35.05 4 24 4zm0 36.67c-3.39 0-6.55-1.04-9.17-2.82l-6.41 1.68 1.71-6.24c-1.96-2.71-3.13-6.04-3.13-9.64 0-9.1 7.4-16.5 16.5-16.5s16.5 7.4 16.5 16.5-7.4 16.5-16.5 16.5z"/>
    <path fill="#fff" d="M32.18 27.07c-.41-.21-2.46-1.21-2.84-1.35-.38-.14-.66-.21-.94.21-.28.41-1.09 1.35-1.34 1.63-.25.28-.49.31-.9.1-.41-.21-1.75-.64-3.33-2.05-1.23-1.1-2.06-2.45-2.31-2.86-.24-.41-.03-.63.18-.83.19-.19.41-.49.62-.74.21-.25.28-.41.41-.69.14-.28.07-.52-.03-.74-.1-.21-.94-2.26-1.29-3.09-.34-.83-.68-.71-.94-.72-.24-.01-.52-.01-.8-.01s-.73.1-1.11.52c-.38.41-1.46 1.42-1.46 3.47s1.49 4.03 1.7 4.31c.21.28 2.96 4.52 7.17 6.34 1 .43 1.78.69 2.39.88.99.31 1.9.27 2.62.16.8-.12 2.46-1.01 2.81-1.98.35-.97.35-1.8.25-1.98-.1-.17-.38-.28-.79-.49z"/>
</svg> 