<?xml version="1.0" standalone="no"?>
<!DOCTYPE svg PUBLIC "-//W3C//DTD SVG 20010904//EN"
 "http://www.w3.org/TR/2001/REC-SVG-20010904/DTD/svg10.dtd">
<svg version="1.0" xmlns="http://www.w3.org/2000/svg"
 width="300.000000pt" height="281.000000pt" viewBox="0 0 300.000000 281.000000"
 preserveAspectRatio="xMidYMid meet">
<metadata>
Created by potrace 1.10, written by Peter Selinger 2001-2011
</metadata>
<g transform="translate(0.000000,281.000000) scale(0.100000,-0.100000)"
fill="#000000" stroke="none">
<path d="M1529 2075 c-25 -8 -66 -32 -90 -54 -203 -178 -67 -507 201 -488 77
5 125 25 174 73 62 61 81 107 81 204 0 64 -5 94 -19 120 -26 49 -84 108 -131
132 -52 27 -154 33 -216 13z m6 -50 c-14 -21 -25 -46 -25 -57 0 -24 -16 -30
-76 -26 l-49 3 43 43 c38 38 120 87 130 78 2 -2 -8 -21 -23 -41z m75 -20 l0
-65 -46 0 c-42 0 -45 1 -38 23 16 53 54 107 75 107 5 0 9 -29 9 -65z m64 40
c12 -13 30 -43 39 -65 l15 -40 -49 0 -49 0 0 65 c0 71 8 79 44 40z m55 5 c46
-23 98 -65 112 -91 9 -18 6 -19 -43 -18 l-53 0 -31 65 c-17 35 -29 64 -27 64
2 0 21 -9 42 -20z m-234 -240 l0 -110 -58 0 c-53 0 -58 2 -67 26 -6 14 -10 52
-10 84 0 32 4 70 10 84 9 24 14 26 67 26 l58 0 0 -110z m115 -2 l0 -113 -49 3
c-45 4 -49 6 -55 34 -8 39 -8 117 0 157 6 30 9 31 55 31 l49 0 0 -112z m124
81 c8 -40 8 -137 0 -166 -6 -20 -13 -23 -55 -23 l-49 0 0 110 0 110 49 0 c46
0 49 -1 55 -31z m138 4 c15 -38 14 -143 -1 -170 -10 -19 -20 -23 -64 -23 l-53
0 0 110 0 110 53 0 c49 0 54 -2 65 -27z m-346 -278 c18 -36 29 -65 25 -65 -19
0 -117 69 -139 98 l-25 32 54 0 54 -1 31 -64z m84 -5 c0 -38 -2 -70 -5 -70
-21 0 -85 100 -85 131 0 5 20 9 45 9 l45 0 0 -70z m110 53 c0 -24 -48 -101
-70 -113 -19 -10 -20 -7 -20 60 l0 70 45 0 c35 0 45 -4 45 -17z m121 -2 c-15
-28 -80 -82 -117 -97 -46 -19 -48 -18 -26 14 11 15 25 44 33 65 13 36 14 37
66 37 49 0 53 -2 44 -19z"/>
<path d="M1286 1525 c-72 -30 -73 -30 -81 -5 -6 18 -14 21 -62 18 -78 -4 -80
-11 -60 -156 9 -66 20 -127 23 -136 4 -11 19 -16 44 -16 60 0 90 15 90 45 0
32 9 32 168 -1 151 -31 166 -28 324 52 108 56 126 74 113 114 -10 32 -51 35
-129 9 -99 -33 -96 -33 -96 -10 0 26 -24 41 -123 80 -93 37 -133 38 -211 6z
m-97 -17 c13 -39 34 -239 25 -248 -5 -4 -26 -10 -47 -13 -47 -7 -51 1 -66 129
-16 136 -16 142 17 147 55 8 63 7 71 -15z m321 -12 c93 -37 114 -56 90 -81
-14 -13 -25 -13 -95 -1 -75 13 -96 13 -83 1 3 -3 41 -10 84 -17 78 -11 80 -10
188 26 86 29 111 34 123 25 33 -28 11 -53 -102 -111 -137 -71 -166 -76 -292
-49 -54 11 -118 22 -143 23 l-44 3 -12 80 c-12 87 -11 95 14 96 9 0 35 9 57
19 62 29 119 25 215 -14z"/>
<path d="M2350 1143 c-39 -15 -50 -36 -50 -93 0 -66 23 -100 69 -100 32 0 81
34 81 56 0 20 -10 17 -36 -11 -29 -31 -58 -32 -78 -3 -18 26 -20 65 -6 102 8
21 16 26 46 26 27 0 37 -5 41 -20 6 -22 33 -28 33 -7 0 31 -65 63 -100 50z"/>
<path d="M360 1136 c0 -4 6 -31 35 -163 9 -38 22 -26 43 35 l19 57 18 -58 c11
-31 24 -56 29 -54 12 4 51 175 43 184 -13 13 -25 -11 -32 -62 -3 -30 -10 -57
-14 -60 -5 -2 -14 16 -21 40 -7 25 -18 45 -25 45 -7 0 -18 -21 -25 -47 -14
-56 -24 -46 -35 35 -5 35 -12 52 -21 52 -8 0 -14 -2 -14 -4z"/>
<path d="M602 1048 l3 -93 63 -3 c52 -2 62 0 62 13 0 13 -9 16 -47 14 -47 -3
-48 -3 -51 29 -3 32 -3 32 42 32 25 0 46 5 46 10 0 6 -20 10 -45 10 -43 0 -45
1 -45 30 0 29 1 30 50 30 28 0 50 5 50 10 0 6 -28 10 -65 10 l-66 0 3 -92z"/>
<path d="M782 1048 l3 -93 43 -3 c56 -4 92 18 92 56 0 16 -5 33 -11 39 -8 8
-8 13 0 17 15 9 14 49 -1 64 -7 7 -38 12 -70 12 l-59 0 3 -92z m111 60 c9 -26
-13 -48 -48 -48 -32 0 -35 2 -35 30 0 28 2 30 39 30 22 0 41 -5 44 -12z m6
-92 c4 -25 -24 -46 -61 -46 -25 0 -28 3 -28 36 l0 35 42 -3 c33 -2 44 -7 47
-22z"/>
<path d="M1063 1048 c1 -63 6 -93 15 -96 8 -2 12 10 12 42 l0 46 45 0 45 0 0
-45 c0 -33 4 -45 15 -45 12 0 15 17 15 95 0 78 -3 95 -15 95 -11 0 -15 -11
-15 -40 l0 -40 -45 0 -45 0 0 40 c0 28 -4 40 -14 40 -12 0 -14 -18 -13 -92z"/>
<path d="M1290 1055 c-35 -91 -36 -98 -22 -103 5 -1 12 9 16 23 6 22 12 25 51
25 39 0 47 -3 55 -25 5 -14 14 -25 20 -25 14 0 14 3 -22 101 -43 116 -56 117
-98 4z m65 19 c21 -50 20 -54 -19 -54 l-35 0 16 45 c8 25 17 45 19 45 2 0 11
-16 19 -36z"/>
<path d="M1470 1045 c0 -111 18 -130 22 -23 l3 71 48 -71 c26 -40 52 -72 57
-72 6 0 10 39 10 95 0 80 -2 95 -16 95 -13 0 -15 -11 -12 -65 1 -36 1 -65 -2
-65 -3 0 -23 29 -45 65 -22 35 -46 64 -52 65 -10 0 -13 -25 -13 -95z"/>
<path d="M1670 1045 l0 -95 43 0 c81 0 118 44 103 124 -10 52 -29 66 -92 66
l-54 0 0 -95z m108 63 c16 -16 15 -103 0 -115 -7 -6 -28 -13 -45 -16 l-33 -6
0 74 0 75 33 0 c18 0 38 -5 45 -12z"/>
<path d="M1940 1130 c0 -5 14 -10 31 -10 l30 0 -2 -82 c-1 -55 2 -83 9 -86 9
-3 12 22 12 82 l0 86 30 0 c17 0 30 5 30 10 0 6 -30 10 -70 10 -40 0 -70 -4
-70 -10z"/>
<path d="M2130 1045 l0 -95 60 0 c48 0 60 3 60 16 0 12 -10 15 -47 13 -47 -3
-48 -3 -51 29 l-3 32 50 0 c28 0 51 5 51 10 0 6 -22 10 -50 10 -49 0 -50 1
-50 30 0 29 1 30 50 30 28 0 50 5 50 10 0 6 -27 10 -60 10 l-60 0 0 -95z"/>
<path d="M2500 1044 c0 -72 3 -95 13 -92 6 3 13 23 15 46 l3 42 45 0 44 0 0
-46 c0 -32 4 -44 13 -42 8 3 13 34 15 96 2 77 0 92 -13 92 -11 0 -15 -11 -15
-40 l0 -40 -45 0 -45 0 0 40 c0 29 -4 40 -15 40 -12 0 -15 -17 -15 -96z"/>
<path d="M1405 840 c-15 -6 -20 -16 -20 -36 1 -25 6 -29 31 -31 20 -1 22 0 7
4 -27 5 -30 20 -5 26 16 4 16 5 0 6 -26 2 -22 19 5 23 12 2 18 6 12 9 -5 4
-19 3 -30 -1z"/>
<path d="M1120 805 c0 -19 5 -35 10 -35 6 0 10 6 10 14 0 8 8 17 18 19 16 4
16 5 0 6 -26 2 -22 19 5 24 16 3 13 5 -10 6 -31 1 -33 -1 -33 -34z"/>
<path d="M1211 803 c1 -21 3 -30 6 -20 6 21 19 22 27 2 3 -8 10 -15 16 -15 6
0 8 5 3 13 -4 6 -6 22 -4 35 2 18 -2 22 -23 22 -24 0 -26 -4 -25 -37z"/>
<path d="M1300 805 c0 -32 2 -35 28 -34 23 2 24 2 5 6 -13 2 -23 8 -23 13 0 5
10 11 23 13 l22 4 -22 2 c-13 0 -23 5 -23 10 0 5 10 12 23 14 19 4 18 4 -5 6
-26 1 -28 -2 -28 -34z"/>
<path d="M1470 805 c0 -32 3 -35 28 -34 16 1 20 3 10 6 -12 3 -18 14 -18 34 0
16 -4 29 -10 29 -5 0 -10 -16 -10 -35z"/>
<path d="M1561 809 c-6 -18 -11 -32 -11 -33 0 -1 15 -1 34 -2 l34 0 -13 30
c-18 41 -31 43 -44 5z"/>
<path d="M1651 804 c1 -24 3 -30 6 -16 2 12 9 20 14 17 15 -10 10 12 -6 25
-13 11 -15 7 -14 -26z"/>
<path d="M1744 826 c-3 -8 -4 -23 -2 -33 4 -22 49 -25 56 -3 4 13 3 13 -11 2
-18 -15 -37 -8 -37 13 0 21 19 28 37 13 14 -11 16 -11 11 2 -6 21 -47 25 -54
6z"/>
<path d="M1830 806 c0 -28 4 -34 25 -38 14 -3 28 -1 31 3 3 5 -4 9 -15 9 -26
0 -28 17 -3 23 16 4 16 5 0 6 -10 0 -18 5 -18 10 0 5 8 12 18 14 10 3 6 5 -10
6 -25 1 -28 -2 -28 -33z"/>
</g>
</svg>
