<?xml version="1.0" encoding="UTF-8"?>
<svg width="48" height="48" viewBox="0 0 48 48" fill="none" xmlns="http://www.w3.org/2000/svg">
    <path d="M24 4C12.95 4 4 12.95 4 24C4 27.95 5.15 31.65 7.15 34.85L4.4 43.6L13.35 40.9C16.45 42.75 20.1 43.85 24 43.85C35.05 43.85 44 34.9 44 23.85C44 12.8 35.05 4 24 4Z" fill="#25D366"/>
    <path d="M34.7 29.45C34.1 31.15 31.75 32.6 29.85 33C28.5 33.3 26.75 33.55 22.05 31.95C16.1 29.9 12.3 23.85 12 23.45C11.7 23.05 9.5 20.15 9.5 17.15C9.5 14.15 11.1 12.65 11.75 12C12.3 11.45 12.95 11.3 13.35 11.3C13.75 11.3 14.15 11.3 14.5 11.35C14.85 11.4 15.35 11.25 15.85 12.45C16.35 13.7 17.6 16.7 17.75 17C17.9 17.3 18 17.65 17.8 18.05C17.6 18.45 17.5 18.7 17.2 19.05C16.9 19.4 16.55 19.85 16.25 20.15C15.95 20.45 15.65 20.8 16 21.35C16.35 21.9 17.6 24 19.7 25.85C22.35 28.2 24.55 28.95 25.1 29.25C25.65 29.55 26 29.5 26.35 29.1C26.7 28.7 27.9 27.25 28.3 26.7C28.7 26.15 29.1 26.25 29.65 26.45C30.2 26.65 33.2 28.15 33.8 28.45C34.4 28.75 34.8 28.9 34.95 29.15C35.1 29.4 35.1 30.85 34.7 29.45Z" fill="white"/>
</svg>
